<?xml version="1.0" encoding="utf-8"?>
<!-- Generator: Adobe Illustrator 16.0.4, SVG Export Plug-In . SVG Version: 6.00 Build 0)  -->
<!DOCTYPE svg PUBLIC "-//W3C//DTD SVG 1.1//EN" "http://www.w3.org/Graphics/SVG/1.1/DTD/svg11.dtd">
<svg version="1.1" id="Ebene_2" xmlns="http://www.w3.org/2000/svg" xmlns:xlink="http://www.w3.org/1999/xlink" x="0px" y="0px"
	 width="410px" height="209px" viewBox="0 0 410 209" enable-background="new 0 0 410 209" xml:space="preserve">
<g>
	<circle fill="#FFFFFF" cx="95.89" cy="131.034" r="56.341"/>
	<circle fill="none" cx="95.89" cy="131.034" r="56.402"/>
	<circle fill="none" cx="95.89" cy="131.034" r="56.402"/>
	<g>
		<path fill="#670877" d="M69.364,119.773c-1.739-0.378-3.366-0.814-4.842-1.302c-2.472-0.819-3.869-2.37-3.74-4.149
			c0.08-1.116,0.907-2.242,2.569-2.242c0.91,0,1.888,0.342,2.6,0.589l0.238,0.083c1.11,0.375,2.334,0.723,3.647,1.029
			c0.289-2.963,0.652-5.875,1.082-8.668c0.141-0.912,0.915-1.57,1.843-1.57c1.347,0,2.619,1.498,2.626,1.508
			c0.591,0.684,0.832,1.389,0.726,2.09c-0.369,2.402-0.695,4.951-0.966,7.586c2.415,0.303,4.894,0.454,7.372,0.454
			c8.819,0,12.565-1.402,16.532-2.887c0.848-0.317,1.727-0.647,2.661-0.966c5.416-1.844,11.381-3.646,19.489-3.646
			c9.571,0,18.315,3.566,24.622,10.037c2.689,2.758,4.841,6.025,6.408,9.657c-1.888-29.443-26.361-52.744-56.282-52.744
			c-2.797,0-8.643,0.35-15.411,2.223c2.502,1.938,4.119,4.963,4.119,8.372c0,5.852-4.744,10.596-10.596,10.596
			c-5.853,0-10.595-4.744-10.595-10.596c0-0.104,0.013-0.204,0.016-0.308c-14.475,10.21-23.935,27.056-23.935,46.116
			c0,25.454,16.863,46.967,40.026,53.984c-4.064-8.311-6.2-17.432-7.651-25.202C69.432,146.484,68.572,133.014,69.364,119.773z
			 M98.816,83.81c5.852,0,10.596,4.744,10.596,10.596c0,5.851-4.744,10.594-10.596,10.594s-10.595-4.743-10.595-10.594
			C88.221,88.554,92.964,83.81,98.816,83.81z"></path>
		<path fill="#670877" d="M127.418,177.687c-1.937,0.414-3.686,0.662-5.332,0.75l-0.591,0.045c-0.038,0.004-0.074,0.004-0.102,0.004
			c-0.002,0-0.003,0-0.006,0l-1.065,0.027h-0.05c-0.228,0.005-0.454,0.012-0.713,0.012c-0.004,0-0.007,0-0.009,0l-0.709-0.018
			l-1.884-0.051c-0.032-0.002-0.064-0.004-0.075-0.005c-0.197-0.018-0.396-0.031-0.594-0.044l-0.242-0.02
			c-0.551-0.037-1.119-0.078-1.7-0.146l-1.239-0.167c-0.441-0.06-0.897-0.118-1.362-0.229l-0.339-0.072
			c-0.667-0.139-1.425-0.295-2.179-0.551l-1.12-0.342c-0.046-0.013-0.092-0.029-0.146-0.05l-1.126-0.451
			c-3.248-1.35-6.03-3.265-8.279-5.698c-1.165-1.287-2.103-2.721-2.789-4.26c-0.652-1.443-1.072-3.045-1.248-4.773
			c-0.008-0.117-0.017-0.205-0.022-0.293l-0.005-0.041c-0.021-0.252-0.053-0.567-0.05-0.883l-0.011-0.814
			c0-0.039,0.002-0.079,0.003-0.123l0.077-1.199c0.014-0.303,0.068-0.609,0.117-0.877l0.012-0.064
			c0.014-0.08,0.026-0.158,0.037-0.226c0.081-0.622,0.241-1.187,0.386-1.69l0.024-0.087c0.038-0.13,0.074-0.259,0.107-0.386
			c0.007-0.028,0.016-0.056,0.024-0.084l0.008-0.023v-0.006c0.081-0.238,0.172-0.469,0.262-0.701l0.293-0.757
			c0.017-0.034,0.031-0.071,0.039-0.087c0.055-0.119,0.112-0.236,0.17-0.352l0.51-1.006c0.025-0.046,0.052-0.09,0.081-0.138
			l0.753-1.189c0.029-0.049,0.062-0.095,0.096-0.139l0.851-1.091c0.025-0.035,0.054-0.066,0.088-0.102
			c0.785-0.859,1.746-1.844,2.896-2.617c1.956-1.396,4.191-2.342,6.481-2.732l0.207-0.027c0.435-0.059,0.884-0.116,1.321-0.158
			c0.043-0.004,0.086-0.008,0.127-0.01l1.347-0.029h0.058c0.045,0,0.092,0.001,0.143,0.006l1.227,0.103
			c0.419,0.017,0.808,0.099,1.119,0.165l0.053,0.01c0.086,0.018,0.167,0.036,0.238,0.049c0.706,0.105,1.327,0.312,1.878,0.498
			l0.045,0.014c0.16,0.053,0.318,0.105,0.479,0.154c0.054,0.016,0.113,0.037,0.159,0.057c0.236,0.098,0.468,0.202,0.689,0.303
			l0.297,0.135c0.315,0.141,0.711,0.312,1.074,0.551l0.298,0.174c0.409,0.24,0.875,0.515,1.276,0.844l0.222,0.167
			c0.321,0.243,0.656,0.493,0.964,0.798c1.168,0.945,1.854,2.338,1.98,2.609c0.361,0.783,0.112,1.707-0.598,2.197
			c-0.296,0.205-0.643,0.313-1.004,0.313c-0.473,0-0.933-0.193-1.262-0.53l-0.95-0.97c-0.114-0.101-0.241-0.201-0.376-0.313
			l-0.026-0.021l-0.349-0.289c-0.023-0.017-0.045-0.036-0.064-0.055c-0.111-0.104-0.343-0.252-0.547-0.385l-0.076-0.05
			c-0.093-0.062-0.189-0.124-0.307-0.204c-0.018-0.014-0.034-0.024-0.043-0.029c-0.188-0.142-0.477-0.291-0.81-0.461
			c-0.126-0.062-0.251-0.127-0.395-0.204c-0.168-0.096-0.368-0.171-0.616-0.263l-0.34-0.131l-0.058-0.022
			c-0.13-0.052-0.262-0.103-0.396-0.151c-0.174-0.041-0.35-0.09-0.534-0.14c-0.423-0.112-0.819-0.221-1.203-0.255
			c-0.174-0.021-0.313-0.042-0.454-0.065c-0.169-0.026-0.326-0.052-0.466-0.052c-0.001,0-0.001,0-0.002,0h-0.051h-0.056
			l-0.006-0.002l-1.108-0.028l-1.103,0.089c-0.177,0.028-0.358,0.062-0.537,0.096l-0.035,0.006
			c-0.203,0.037-0.407,0.076-0.585,0.104c-1.555,0.335-3.082,1.061-4.429,2.108c-0.722,0.529-1.351,1.221-1.924,1.892l-0.623,0.87
			l-0.536,0.936l-0.389,0.85c-0.019,0.043-0.039,0.084-0.057,0.126l-0.118,0.344c-0.034,0.101-0.071,0.217-0.11,0.324l-0.025,0.075
			c-0.035,0.099-0.069,0.196-0.099,0.297c-0.035,0.158-0.072,0.318-0.113,0.478c-0.077,0.325-0.159,0.663-0.181,0.937
			c-0.018,0.166-0.036,0.297-0.056,0.426l-0.004,0.025c-0.021,0.131-0.033,0.227-0.036,0.321l-0.041,1.112l0.03,0.623
			c0.003,0.152,0.019,0.294,0.041,0.466c0.014,0.118,0.029,0.235,0.039,0.341c0.243,2.073,1.225,4.1,2.767,5.71
			c1.654,1.727,3.887,3.194,6.289,4.128c2.264,0.885,5.009,1.405,8.146,1.547l2.354,0.051c0.172-0.003,0.403-0.01,0.638-0.018
			l0.975-0.026l0.55-0.044c1.356-0.084,2.808-0.298,4.438-0.656c6.016-1.291,11.646-4.542,15.85-9.157
			c1.676-1.834,3.11-3.864,4.278-6.029c0.454-0.896,0.886-1.804,1.291-2.725c1.139-2.731,1.87-5.614,2.142-8.546
			c0.335-3.662,0.064-7.3-0.797-10.803c-1.242-4.635-3.775-9.008-7.317-12.645c-5.176-5.311-12.406-8.236-20.359-8.236
			c-7.207,0-12.425,1.572-17.569,3.326c-0.836,0.286-1.662,0.595-2.483,0.9c-4.291,1.609-8.728,3.27-18.63,3.27
			c-2.628,0-5.273-0.158-7.876-0.474c-0.833,12.88-0.112,25.727,2.146,38.188c1.501,8.293,3.303,14.928,5.672,20.876
			c0.861,2.161,1.846,4.469,3.042,6.743c3.386,0.634,6.877,0.97,10.447,0.97c11.811,0,22.772-3.632,31.832-9.837
			C127.661,177.626,127.541,177.66,127.418,177.687z"></path>
	</g>
</g>
</svg>
